<svg width="512" height="512" viewBox="0 0 512 512" xmlns="http://www.w3.org/2000/svg">
  <defs>
    <linearGradient id="bgGradient" x1="0%" y1="100%" x2="100%" y2="0%">
      <stop offset="0%" style="stop-color:#4a00e0;stop-opacity:1" />
      <stop offset="100%" style="stop-color:#00d2ff;stop-opacity:1" />
    </linearGradient>

    <linearGradient id="faceGradient" x1="0%" y1="0%" x2="0%" y2="100%">
      <stop offset="0%" style="stop-color:#80dfff;stop-opacity:1" />
      <stop offset="100%" style="stop-color:#007bff;stop-opacity:1" />
    </linearGradient>

    <filter id="glow" x="-20%" y="-20%" width="140%" height="140%">
      <feGaussianBlur stdDeviation="2" result="blur" />
      <feComposite in="SourceGraphic" in2="blur" operator="over" />
    </filter>
  </defs>

  <rect x="64" y="64" width="384" height="384" rx="80" ry="80" fill="url(#bgGradient)" stroke="#2a2a50" stroke-width="4"/>

  <g stroke="#00d2ff" stroke-width="8" stroke-linecap="round">
    <line x1="140" y1="180" x2="140" y2="130" />
    <line x1="372" y1="180" x2="372" y2="130" />
  </g>
  <circle cx="140" cy="130" r="10" fill="#00d2ff" />
  <circle cx="372" cy="130" r="10" fill="#00d2ff" />

  <g filter="url(#glow)">
    <path d="M 140 210 
             H 372 
             A 30 30 0 0 1 402 240 
             V 290 
             A 90 90 0 0 1 256 390 
             A 90 90 0 0 1 110 290 
             V 240 
             A 30 30 0 0 1 140 210 Z" 
          fill="url(#faceGradient)" />
  </g>

  <circle cx="190" cy="280" r="22" fill="#051a30" />
  <circle cx="322" cy="280" r="22" fill="#051a30" />
  
  <path d="M 220 335 Q 256 360 292 335" 
        fill="none" stroke="#051a30" stroke-width="10" stroke-linecap="round" />

  <g transform="translate(0, -10)">
    <circle cx="256" cy="190" r="65" 
            fill="#051a30" 
            stroke="#00ffff" 
            stroke-width="12" />
            
    <line x1="302" y1="236" x2="350" y2="284" 
          stroke="#00ffff" 
          stroke-width="14" 
          stroke-linecap="round" />
          
    <g transform="translate(256, 190)" fill="#00ffff">
       <circle cx="0" cy="0" r="12" /> <path d="M -22 -8 L -22 8 L -32 12 L -32 22 L -20 28 L -12 36 L -8 46 L 8 46 L 12 36 L 20 28 L 32 22 L 32 12 L 22 8 L 22 -8 L 32 -12 L 32 -22 L 20 -28 L 12 -36 L 8 -46 L -8 -46 L -12 -36 L -20 -28 L -32 -22 L -32 -12 Z" 
             transform="scale(0.8)"/>
        <path d="M 0 -25 A 25 25 0 1 0 0 25 A 25 25 0 1 0 0 -25 M 0 -18 A 18 18 0 1 1 0 18 A 18 18 0 1 1 0 -18" fill-rule="evenodd"/>
    </g>
  </g>
</svg>